<?xml version="1.0" encoding="utf-8"?>
<!-- Generator: Adobe Illustrator 22.0.1, SVG Export Plug-In . SVG Version: 6.00 Build 0)  -->
<svg version="1.1" id="레이어_1" xmlns="http://www.w3.org/2000/svg" xmlns:xlink="http://www.w3.org/1999/xlink" x="0px"
	 y="0px" width="500px" height="500px" viewBox="0 0 500 500" style="enable-background:new 0 0 500 500;" xml:space="preserve">
<style type="text/css">
	.st0{font-family:'AdobeGothicStd-Bold-KSCpc-EUC-H';}
	.st1{font-size:22.5749px;}
</style>
<rect x="249" width="2" height="20"/>
<rect x="249" y="480" width="2" height="20"/>
<rect x="369" y="32.2" transform="matrix(0.866 0.5 -0.5 0.866 70.6476 -179.3524)" width="2" height="20"/>
<rect x="129" y="447.8" transform="matrix(0.866 0.5 -0.5 0.866 246.3398 -3.6603)" width="2" height="20"/>
<rect x="456.8" y="120" transform="matrix(0.5 0.866 -0.866 0.5 341.5063 -331.5063)" width="2" height="20"/>
<rect x="41.2" y="360" transform="matrix(0.5 0.866 -0.866 0.5 341.5063 148.4937)" width="2" height="20"/>
<rect x="489" y="240" transform="matrix(4.638405e-11 1 -1 4.638405e-11 740 -240)" width="2" height="20"/>
<rect x="9" y="240" transform="matrix(4.411031e-11 1 -1 4.411031e-11 260 240)" width="2" height="20"/>
<rect x="456.8" y="360" transform="matrix(-0.5 0.866 -0.866 -0.5 1007.1985 158.4937)" width="2" height="20"/>
<rect x="41.2" y="120" transform="matrix(-0.5 0.866 -0.866 -0.5 175.8142 158.4937)" width="2" height="20"/>
<rect x="369" y="447.8" transform="matrix(-0.866 0.5 -0.5 -0.866 919.3525 669.3525)" width="2" height="20"/>
<rect x="129" y="32.2" transform="matrix(-0.866 0.5 -0.5 -0.866 263.6602 13.6603)" width="2" height="20"/>
<text transform="matrix(1 0 0 1 235.9321 54.1572)" class="st0 st1">12</text>
<text transform="matrix(1 0 0 1 346.7979 85.1978)" class="st0 st1">1</text>
<text transform="matrix(1 0 0 1 421.1064 151.0415)" class="st0 st1">2</text>
<text transform="matrix(1 0 0 1 453.0879 259.2129)" class="st0 st1">3</text>
<text transform="matrix(1 0 0 1 421.1064 360.7998)" class="st0 st1">4</text>
<text transform="matrix(1 0 0 1 346.7979 436.0498)" class="st0 st1">5</text>
<text transform="matrix(1 0 0 1 244.269 463.3281)" class="st0 st1">6</text>
<text transform="matrix(1 0 0 1 141.7417 436.0498)" class="st0 st1">7</text>
<text transform="matrix(1 0 0 1 67.4326 360.7998)" class="st0 st1">8</text>
<text transform="matrix(1 0 0 1 37.3325 259.2129)" class="st0 st1">9</text>
<text transform="matrix(1 0 0 1 65.6797 153.8633)" class="st0 st1">10</text>
<text transform="matrix(1 0 0 1 135.2856 87.0791)" class="st0 st1">11</text>
</svg>
